<?xml version="1.0" encoding="UTF-8"?>
<!DOCTYPE svg PUBLIC "-//W3C//DTD SVG 1.1//EN" "http://www.w3.org/Graphics/SVG/1.1/DTD/svg11.dtd">
<svg version="1.1" xmlns="http://www.w3.org/2000/svg" xmlns:xlink="http://www.w3.org/1999/xlink" width="220" height="165"  xml:space="preserve" id="pictoDelivery">
    <!-- Generated by PaintCode - http://www.paintcodeapp.com -->
    <rect id="pictoDelivery-rectangle" stroke="none" fill="rgb(40, 42, 54)" x="0" y="0" width="220" height="165" />
    <path id="pictoDelivery-bezier" stroke="rgb(98, 102, 129)" stroke-width="1.5" stroke-linecap="round" stroke-linejoin="round" stroke-miterlimit="10" fill="rgb(98, 102, 129)" fill-opacity="0.2" d="M 130.6,127.07 L 83.72,127.07 C 83.72,127.07 83.72,60.72 83.72,49.35 83.72,37.98 94.22,28.75 107.16,28.75 120.09,28.75 130.59,37.98 130.59,49.35 130.59,60.72 130.6,127.07 130.6,127.07 Z M 130.6,127.07" />
    <rect id="pictoDelivery-rectangle2" stroke="rgb(98, 102, 129)" stroke-width="0.8" stroke-miterlimit="10" fill="rgb(40, 42, 54)" x="87.65" y="54.32" width="39" height="72.75" />
    <path id="pictoDelivery-bezier2" stroke="rgb(98, 102, 129)" stroke-width="1.5" stroke-linecap="round" stroke-linejoin="round" stroke-miterlimit="10" fill="none" d="M 83.96,49.63 L 130.09,49.63" />
    <path id="pictoDelivery-bezier3" stroke="rgb(98, 102, 129)" stroke-width="0.8" stroke-linecap="round" stroke-linejoin="round" stroke-miterlimit="10" fill="none" d="M 83.98,51.75 L 130.66,51.75" />
    <path id="pictoDelivery-bezier4" fill-rule="evenodd" stroke="none" fill="rgb(98, 102, 129)" d="M 97.22,103.86 L 117.47,103.86 117.47,97.68 97.22,97.68 97.22,103.86 Z M 98.72,102.45 L 115.97,102.45 115.97,99.09 98.72,99.09 98.72,102.45 Z M 98.72,102.45" />
    <path id="pictoDelivery-bezier5" stroke="rgb(98, 102, 129)" stroke-width="0.8" stroke-linecap="round" stroke-linejoin="round" stroke-miterlimit="10" fill="none" d="M 99.89,101.22 L 114.83,101.22" />
    <path id="pictoDelivery-bezier6" stroke="rgb(98, 102, 129)" stroke-width="0.8" stroke-linecap="round" stroke-linejoin="round" stroke-miterlimit="10" fill="none" d="M 106.95,90.99 C 106.97,90.81 107.14,90.66 107.36,90.66 107.57,90.66 107.74,90.81 107.76,90.99 107.89,90.85 108.12,90.81 108.3,90.92 108.48,91.03 108.54,91.24 108.45,91.41 108.64,91.35 108.85,91.43 108.94,91.61 109.03,91.8 108.96,92.01 108.79,92.1 108.98,92.15 109.11,92.33 109.08,92.53 109.05,92.72 108.87,92.87 108.67,92.86 108.81,92.99 108.81,93.21 108.67,93.36 108.53,93.51 108.3,93.54 108.14,93.44 108.17,93.62 108.05,93.81 107.85,93.86 107.64,93.92 107.43,93.82 107.36,93.65 107.28,93.82 107.07,93.92 106.87,93.86 106.66,93.81 106.54,93.62 106.58,93.44 106.41,93.54 106.18,93.51 106.04,93.36 105.9,93.21 105.91,92.99 106.04,92.86 105.85,92.87 105.66,92.72 105.63,92.53 105.6,92.33 105.73,92.15 105.93,92.1 105.76,92.01 105.69,91.8 105.77,91.61 105.86,91.43 106.08,91.35 106.26,91.41 106.18,91.24 106.24,91.03 106.42,90.92 106.59,90.81 106.83,90.85 106.95,90.99 Z M 106.95,90.99" />
    <path id="pictoDelivery-bezier7" stroke="rgb(98, 102, 129)" stroke-width="0.84" stroke-linecap="round" stroke-linejoin="round" stroke-miterlimit="10" fill="rgb(40, 42, 54)" d="M 85.9,49.53 C 85.9,39.16 95.47,30.87 107.34,30.87 119.22,30.87 128.78,39.26 128.78,49.53" />
    <path id="pictoDelivery-bezier8" stroke="rgb(98, 102, 129)" stroke-width="0.8" stroke-linecap="round" stroke-linejoin="round" stroke-miterlimit="10" fill="none" d="M 86.12,49.71 C 86.12,47.53 88.13,45.76 90.6,45.76 88.46,44.67 87.72,42.25 88.96,40.37 90.2,38.48 92.94,37.83 95.09,38.92 93.85,37.03 94.58,34.62 96.73,33.52 98.87,32.43 101.61,33.08 102.85,34.97 102.85,32.79 104.86,31.02 107.34,31.02 109.81,31.02 111.82,32.79 111.82,34.97 113.06,33.08 115.8,32.43 117.94,33.52 120.09,34.62 120.82,37.03 119.58,38.92 121.73,37.83 124.47,38.48 125.71,40.37 126.95,42.25 126.21,44.67 124.07,45.76 126.54,45.76 128.55,47.53 128.55,49.71" />
    <path id="pictoDelivery-bezier9" stroke="rgb(98, 102, 129)" stroke-width="0.8" stroke-linecap="round" stroke-linejoin="round" stroke-miterlimit="10" fill="none" d="M 102.73,34.58 L 106.23,45.85" />
    <path id="pictoDelivery-bezier10" stroke="rgb(98, 102, 129)" stroke-width="0.8" stroke-linecap="round" stroke-linejoin="round" stroke-miterlimit="10" fill="none" d="M 111.97,34.37 L 108.47,45.64" />
    <path id="pictoDelivery-bezier11" stroke="rgb(98, 102, 129)" stroke-width="0.8" stroke-linecap="round" stroke-linejoin="round" stroke-miterlimit="10" fill="none" d="M 120.01,38.54 L 111.36,46.64" />
    <path id="pictoDelivery-bezier12" stroke="rgb(98, 102, 129)" stroke-width="0.8" stroke-linecap="round" stroke-linejoin="round" stroke-miterlimit="10" fill="none" d="M 124.92,45.62 L 112.93,48.02" />
    <path id="pictoDelivery-bezier13" stroke="rgb(98, 102, 129)" stroke-width="1.5" stroke-linecap="round" stroke-linejoin="round" stroke-miterlimit="10" fill="none" d="M 83.78,127.3 L 75.75,130.49 75.75,137.4 138.98,137.4 138.98,130.49 130.95,127.3" />
    <path id="pictoDelivery-bezier14" stroke="rgb(98, 102, 129)" stroke-width="0.8" stroke-linecap="round" stroke-linejoin="round" stroke-miterlimit="10" fill="none" d="M 76.18,130.64 L 138.98,130.64" />
    <path id="pictoDelivery-bezier15" stroke="rgb(98, 102, 129)" stroke-width="0.8" stroke-linecap="round" stroke-linejoin="round" stroke-miterlimit="10" fill="none" d="M 95,38.75 L 103.65,46.85" />
    <path id="pictoDelivery-bezier16" stroke="rgb(98, 102, 129)" stroke-width="0.8" stroke-linecap="round" stroke-linejoin="round" stroke-miterlimit="10" fill="none" d="M 90.25,45.63 L 102.25,48.03" />
    <path id="pictoDelivery-bezier17" stroke="rgb(98, 102, 129)" stroke-width="0.8" stroke-linecap="round" stroke-linejoin="round" stroke-miterlimit="10" fill="none" d="M 101.82,49.67 C 101.82,47.55 104.42,45.83 107.61,45.83 110.81,45.83 113.4,47.55 113.4,49.67" />
    <path id="pictoDelivery-bezier18" fill-rule="evenodd" stroke="none" fill="rgb(98, 102, 129)" d="M 91.42,70.24 L 103.46,70.24 103.46,58.93 91.42,58.93 91.42,70.24 Z M 92.22,69.49 L 102.66,69.49 102.66,59.68 92.22,59.68 92.22,69.49 Z M 92.22,69.49" />
    <path id="pictoDelivery-bezier19" fill-rule="evenodd" stroke="none" fill="rgb(98, 102, 129)" d="M 91.42,122.61 L 103.46,122.61 103.46,107.9 91.42,107.9 91.42,122.61 Z M 92.22,121.86 L 102.66,121.86 102.66,108.65 92.22,108.65 92.22,121.86 Z M 92.22,121.86" />
    <path id="pictoDelivery-bezier20" fill-rule="evenodd" stroke="none" fill="rgb(98, 102, 129)" d="M 110.82,70.24 L 122.86,70.24 122.86,58.93 110.82,58.93 110.82,70.24 Z M 111.62,69.49 L 122.06,69.49 122.06,59.68 111.62,59.68 111.62,69.49 Z M 111.62,69.49" />
    <path id="pictoDelivery-bezier21" fill-rule="evenodd" stroke="none" fill="rgb(98, 102, 129)" d="M 110.82,122.61 L 122.86,122.61 122.86,107.9 110.82,107.9 110.82,122.61 Z M 111.62,121.86 L 122.06,121.86 122.06,108.65 111.62,108.65 111.62,121.86 Z M 111.62,121.86" />
    <path id="pictoDelivery-bezier22" fill-rule="evenodd" stroke="none" fill="rgb(98, 102, 129)" d="M 91.42,93.79 L 103.46,93.79 103.46,72.39 91.42,72.39 91.42,93.79 Z M 92.22,93.03 L 102.66,93.03 102.66,73.14 92.22,73.14 92.22,93.03 Z M 92.22,93.03" />
    <path id="pictoDelivery-bezier23" fill-rule="evenodd" stroke="none" fill="rgb(98, 102, 129)" d="M 110.82,93.79 L 122.86,93.79 122.86,72.39 110.82,72.39 110.82,93.79 Z M 111.62,93.03 L 122.06,93.03 122.06,73.14 111.62,73.14 111.62,93.03 Z M 111.62,93.03" />
</svg>
